<svg xmlns="http://www.w3.org/2000/svg" viewBox="0 0 637.91 189.65"><defs><style>.cls-1,.cls-2{fill:#fff;}.cls-2{fill-rule:evenodd;}</style></defs><g id="Capa_2" data-name="Capa 2"><g id="Capa_1-2" data-name="Capa 1"><path class="cls-1" d="M169.37,36.32c33,49.12,10.12,117.26-47.16,135.62-7.06-3.51-13.91-4.52-16.36-5.17,0,0-1.61-18,0-25.83.69-3.41,1.6-9.28,7.36-11.81,4.05-1.77,17.49-9.4,13.56-31,0,0-4.61,17.69-13.7,20.11-1.42.38-.81-4.74,3-8.75,0,0-14.45-2.13-20.93,28.78-6.46-30.91-20.92-28.78-20.92-28.78,3.79,4,4.4,9.13,3,8.75-9.09-2.42-13.7-20.11-13.7-20.11-3.93,21.57,9.51,29.2,13.56,31,5.76,2.53,6.67,8.4,7.37,11.81,1.6,7.88,0,25.83,0,25.83-2.49.66-9.5,1.68-16.65,5.3C10.37,154-13.07,85.75,20.17,36.32-17.62,84.47-.45,156,56.12,181.32c62.42,27.91,133.42-17.68,133.42-86.55a94.37,94.37,0,0,0-20.17-58.45Z"/><path class="cls-1" d="M94.77,6.91a86.37,86.37,0,0,1,86.3,82.92,86.37,86.37,0,1,0-172.61,0A86.38,86.38,0,0,1,94.77,6.91Z"/><path class="cls-2" d="M52.29,65.79c4.92-8.53-4.95-9.27-11.12-16.4-3.72,7.38,1,18.26,8.8,17.42,0-2.57-1.21-5.72-4.27-8.62,4.18,2.14,6.57,4.89,6.59,7.6Z"/><path class="cls-2" d="M56.29,46.82c5.54-4.22-2.53-8.39-2.25-14-5.54,4.59-5.17,12.82-.21,14.11.79-1.31,1-4.56-.09-6.68a10.51,10.51,0,0,1,2.55,6.6Z"/><path class="cls-2" d="M66,33.78c4.68-1.33.71-7.51,2.51-11C63.53,25,61.25,31,65,33.51c1-.94,1.37-2.88,1.16-5.71a7.91,7.91,0,0,1-.17,6Z"/><path class="cls-2" d="M90,37.13c-7.94-1.82.61-12.22-.31-17.67,7.64,5.93,7.92,14.49,3,17.32-1.32-1.4-2-5.59-1.36-8.48A13.34,13.34,0,0,0,90,37.13Z"/><path class="cls-2" d="M58,103.41c-4.5,6.8-11.23-4.85-16.66-5.9,8.23-5.08,16.34-2.33,17.26,3.28-1.77.75-6,0-8.41-1.7A13.24,13.24,0,0,0,58,103.41Z"/><path class="cls-2" d="M105.7,38.1c-4.75-1.36-.8-7.39-2.16-10.75,5,2.23,6.93,8.51,3.17,10.47-.82-1.17-.7-3-.71-5.58a10.44,10.44,0,0,0-.3,5.86Z"/><path class="cls-2" d="M151.37,115.46c2.06-4.5,7.43.32,10.95-.51-3,4.6-9.46,5.56-10.83,1.54,1.28-.63,3.07-.24,5.63.14a10.34,10.34,0,0,0-5.75-1.17Z"/><path class="cls-2" d="M157.85,83.81c-2.06-4.5,5.1-5.41,6.77-8.63,1.55,5.26-2,10.8-5.91,9.21.36-1.38,1.82-2.48,3.79-4.16a10.36,10.36,0,0,0-4.65,3.58Z"/><path class="cls-2" d="M143.92,53.37c-2.15-4.46,5-5.52,6.58-8.77,1.67,5.21-1.73,10.83-5.7,9.33.32-1.39,1.76-2.52,3.69-4.24a10.41,10.41,0,0,0-4.57,3.68Z"/><path class="cls-2" d="M94.92,80.39c-3.67-3.33,2.55-7,2.82-10.6,3.49,4.21,2.44,10.7-1.8,10.79-.22-1.41.69-3,1.83-5.32a10.38,10.38,0,0,0-2.85,5.13Z"/><path class="cls-2" d="M120.8,31.14c-4.75-2.32.55-7.93-.24-11.72,4.84,3.29,5.68,10.26,1.35,11.62a8.41,8.41,0,0,0,.3-6,12.47,12.47,0,0,1-1.41,6.11Z"/><path class="cls-2" d="M134.09,91.81c-2.33-8.32,9.61-5.48,14-10.58.58,9.9-7.11,14.37-12.39,11.7.38-1.87,2.58-3.84,6.09-5.1a13.14,13.14,0,0,0-7.75,4Z"/><path class="cls-2" d="M146.39,76c-5.37-6.77,6.74-8.77,8.86-15.2,4.37,8.9-1,16-6.9,15.59-.37-1.88.9-4.55,3.65-7.06A13.1,13.1,0,0,0,146.39,76Z"/><path class="cls-2" d="M132.5,118.52c5.16-6.93,10.21,4.26,17,4.66-7.48,6.51-15.72,3.15-16.84-2.66,1.72-.84,4.63-.3,7.76,1.71a13.15,13.15,0,0,0-7.88-3.71Z"/><path class="cls-2" d="M31,92.23c-4.48,7.39-10.57-3.26-17.34-3,6.83-7.2,15.35-4.64,17,1-1.63,1-4.57.74-7.88-1A13.1,13.1,0,0,0,31,92.23Z"/><path class="cls-2" d="M58.42,119.76c5,7-7.13,8.45-9.55,14.77-3.95-9.09,1.74-15.93,7.61-15.25.29,1.89-1.1,4.5-4,6.88a13.13,13.13,0,0,0,5.91-6.4Z"/><path class="cls-2" d="M63.09,81.45c3.14,3.46,1.87,15,8.74,11.35a11.52,11.52,0,0,1-3.76-7c.94,2.18,2.5,5.24,4.78,6,2.9-6.32-4.1-10.81-9.76-10.32Z"/><path class="cls-2" d="M148.37,109.56c-5.84-3-14.63,3.53-14.77-4.86a10.34,10.34,0,0,0,8,1.3c-2.74-.1-5.41-.62-7.34-2.69,5.19-4.51,12.75.1,14.07,6.25Z"/><path class="cls-2" d="M118.69,40.75c-5.6,9.75,4.11,25-8.37,25.35,2.51-3.87,3.19-8.41,1.7-14.11-.39,4.7-1.51,9.22-5.23,12.38-7.29-9.3,1.25-21.87,11.9-23.62Z"/><path class="cls-2" d="M175.52,101.74C164.81,98.31,152,111,149,98.86c4.32,1.64,8.9,1.36,14.16-1.29-4.67.6-9.33.45-13.2-2.52,7.57-9.08,21.65-3.36,25.59,6.69Z"/><path class="cls-2" d="M137.21,53.42c-5.1,13.2-27.68,15.75-18.16,28.25,1.8-5.5,5.7-9.77,12.46-12.82-4.76,4.05-9.07,8.64-8.54,14.83,14.86-.22,21-18.44,14.24-30.26Z"/><path class="cls-2" d="M27.61,63.87c9.88,10.12,31.31,3.77,27.49,19-3.83-4.36-9.14-6.76-16.09-7,5.56,2.09,10.46,5,13,10.6-13.75,5.66-25.75-8.79-24.42-22.59Z"/><path class="cls-2" d="M65.31,74.86c2.34-5.56-4.6-4.88-6.58-8.93-2,7.72,1.63,9,5.59,9.86a6.21,6.21,0,0,0-2.71-4.6,5.69,5.69,0,0,1,3.7,3.67Z"/><path class="cls-2" d="M93.81,60.78c-6.27-2.93,1.08-9.24.31-14.85,7,8.81,3.57,9.85,1.34,15-.93-1.66-1.09-4.05-.43-7.16a8,8,0,0,0-1.22,7Z"/><path class="cls-2" d="M104.63,87.83c-4.74-5,4.42-8.2,5.76-13.7,3.24,10.76-.3,10.48-4.28,14.43-.24-1.88.49-4.17,2.25-6.81a8.06,8.06,0,0,0-3.73,6.08Z"/><path class="cls-2" d="M87.17,103.57c-6.84,1.07-4.27-8.27-8-12.49,10.7,3.41,8.47,6.18,9.49,11.69-1.69-.86-3.17-2.76-4.36-5.7a8,8,0,0,0,2.91,6.5Z"/><path class="cls-2" d="M96.9,103c-5.36-4.37,3.31-8.7,3.92-14.32,4.62,10.23,1.07,10.42-2.35,14.86-.49-1.83-.07-4.2,1.33-7A8.11,8.11,0,0,0,96.9,103Z"/><path class="cls-2" d="M81.54,83.77c-7.64-4.57,3-10.27,2.94-17.31,6.53,5.3,5.69,15.28-.89,17.44-.91-2.07-.28-4.92,1.11-8.35-2.34,2.41-3.63,5.11-3.16,8.22Z"/><path class="cls-2" d="M112.26,98.06c-2.91-5.84,6.59-5.31,8.93-10.54,2.23,6.26-2.5,13.72-7.59,11.6-.13-1.91,1.33-3.31,4.09-5-2.76.81-4.42,1.85-5.43,4Z"/><path class="cls-2" d="M70.66,65.93c-15.1-7.53,5.39-19.79,4.91-33.2,11.05,8.35,11.42,28.77-1,33.32-1.86-3.9-.86-9.37,1.59-16-4.3,4.76-6.59,10-5.5,15.89Z"/><path class="cls-2" d="M46.44,110.39c-2.48,3-8.74,2-17.07-1,5.42,4.36,10.9,6.31,16.44,5.16-4.75,15.68-22.84-6.1-32.93-3.74,8.14-11.25,26.4-13.69,33.56-.38Z"/><path class="cls-2" d="M125.63,46.51c-3.79-5.21,5.38-7,7.42-12.61,3.35,6.3.45,14.92-5.56,13.55-.25-2,1-3.89,3.37-6.36-2.88,1.42-4.51,2.87-5.23,5.42Z"/><path class="cls-1" d="M294.18,135.1a5.12,5.12,0,0,1-2.44-2.52,13.43,13.43,0,0,1-.91-5.73c0-.84,0-1.84.14-3a14.92,14.92,0,0,1,.56-3.14h.28a15.77,15.77,0,0,1-1.89,4.82,16.21,16.21,0,0,1-3.85,4.55,18.67,18.67,0,0,1-6,3.42,25.69,25.69,0,0,1-8.81,1.33q-8.82,0-13.43-4T253.21,120a16.22,16.22,0,0,1,2.59-9.3,22.1,22.1,0,0,1,6.71-6.44,39.45,39.45,0,0,1,8.95-4.12,74.57,74.57,0,0,1,9.44-2.38c3.07-.56,5.78-1,8.11-1.4q0-5.73-.21-9a21,21,0,0,0-.84-5.1A9.26,9.26,0,0,0,286.07,79a11.15,11.15,0,0,0-3.84-3.14,11,11,0,0,0-4.83-1,9.42,9.42,0,0,0-7.27,2.86,16.7,16.7,0,0,0-3.78,6.65,28.8,28.8,0,0,0-1.25,6.71c-1,0-2.31-.07-3.85-.21a10.2,10.2,0,0,1-3.43-.77,68,68,0,0,0,.14-7.83,39.1,39.1,0,0,0-.84-7.41,60.24,60.24,0,0,1,12.1-4.62,46,46,0,0,1,11.68-1.68A24.07,24.07,0,0,1,289.78,70a16.14,16.14,0,0,1,5.94,3.85A16.9,16.9,0,0,1,300.48,83a81.3,81.3,0,0,1,1.11,15v15.38a24.55,24.55,0,0,0,.63,6.23,5.27,5.27,0,0,0,2.45,3.35,13.5,13.5,0,0,0,5.59,1.33c0,.94,0,2-.14,3.15a12.42,12.42,0,0,1-.69,3.28,34.86,34.86,0,0,0-7.77,1.33A34,34,0,0,0,294.18,135.1Zm-19-8a11.84,11.84,0,0,0,6.3-2,15.43,15.43,0,0,0,5.38-6.36q2.18-4.33,2.17-11.33V102.1c-2.33.28-4.8.67-7.41,1.19a32.6,32.6,0,0,0-7.28,2.3,14.3,14.3,0,0,0-5.45,4.27,11.72,11.72,0,0,0-2.1,7.34q0,5.17,2.52,7.55A8.27,8.27,0,0,0,275.16,127.13Z"/><path class="cls-1" d="M321,134.26c0-1.3.05-2.45.14-3.43a9.93,9.93,0,0,1,.56-2.58q5.59-.28,7.62-2.73t2-9.44V88.39a17.47,17.47,0,0,0-.7-5.45,5.54,5.54,0,0,0-2.94-3.22,17.38,17.38,0,0,0-6.85-1.26,12.68,12.68,0,0,1,.28-2.79,7.59,7.59,0,0,1,1-2.38,40.34,40.34,0,0,0,5.94-.91q3.57-.76,6.93-1.82a30.19,30.19,0,0,0,5.17-2,4.4,4.4,0,0,1,2.17,1.68,6.81,6.81,0,0,1,.91,3.92c0,1.49-.07,3.21-.21,5.17s-.45,4.85-.91,8.67l-1.4.14q2-5.31,2.87-7.13a19,19,0,0,1,1.32-2.38A27.19,27.19,0,0,1,352.43,72a23.87,23.87,0,0,1,23.28-.77q4.89,2.66,7.13,9.09a15.25,15.25,0,0,1,.56,4.62H383a22.24,22.24,0,0,1,2.8-5.6,29.86,29.86,0,0,1,7.55-6.64,23.78,23.78,0,0,1,22.23-1.26,16.41,16.41,0,0,1,7.21,7.13q2.72,5,2.72,13.5v24a23.26,23.26,0,0,0,.91,7.34,6,6,0,0,0,2.8,3.57,13.09,13.09,0,0,0,4.69,1.26,12.59,12.59,0,0,1,.55,2.65,32.62,32.62,0,0,1,.14,3.36c-2.05-.19-4.4-.3-7.06-.35s-5.38-.07-8.18-.07c-1.86,0-3.78,0-5.73.07l-5.74.14c-1.86,0-3.59.12-5.17.21,0-1.3.05-2.45.14-3.43a9.93,9.93,0,0,1,.56-2.58,16.11,16.11,0,0,0,5.87-1.33,5.84,5.84,0,0,0,2.94-3.64,24.24,24.24,0,0,0,.84-7.2V94.82q0-9.91-3.57-13.49a12.58,12.58,0,0,0-9.3-3.57,13.26,13.26,0,0,0-7.13,2.31,16.83,16.83,0,0,0-6,7.41q-2.39,5.11-2.38,13.64v15c0,4.85.74,8,2.24,9.58s4,2.4,7.55,2.59a12.59,12.59,0,0,1,.56,2.65c.09.94.14,2.06.14,3.36-2.33-.19-5-.3-8-.35s-5.9-.07-8.6-.07-5.53,0-8.46.07-5.67.16-8.18.35c0-1.3,0-2.45.13-3.43a10.35,10.35,0,0,1,.56-2.58,16.17,16.17,0,0,0,5.88-1.33,5.83,5.83,0,0,0,2.93-3.64,24.24,24.24,0,0,0,.84-7.2v-22q0-9.93-3.56-13.5a12.58,12.58,0,0,0-9.3-3.57,13.26,13.26,0,0,0-7.13,2.31,16.91,16.91,0,0,0-6,7.41q-2.37,5.11-2.37,13.64v15.66c0,4.66.69,7.81,2.09,9.44s4,2.54,7.69,2.73a12,12,0,0,1,.56,2.65,32.62,32.62,0,0,1,.14,3.36q-2.37-.13-5.31-.21l-5.87-.14c-2,0-3.78-.07-5.46-.07s-3.4,0-5.45.07l-6,.14C324.25,134.1,322.52,134.17,321,134.26Z"/><path class="cls-1" d="M487.58,135.1a5.12,5.12,0,0,1-2.44-2.52,13.43,13.43,0,0,1-.91-5.73c0-.84,0-1.84.14-3a14.92,14.92,0,0,1,.56-3.14h.28a15.77,15.77,0,0,1-1.89,4.82,16.21,16.21,0,0,1-3.85,4.55,18.67,18.67,0,0,1-6,3.42,25.69,25.69,0,0,1-8.81,1.33q-8.81,0-13.42-4T446.61,120a16.22,16.22,0,0,1,2.59-9.3,22.1,22.1,0,0,1,6.71-6.44,39.45,39.45,0,0,1,8.95-4.12,75,75,0,0,1,9.44-2.38c3.08-.56,5.78-1,8.11-1.4q0-5.73-.21-9a21,21,0,0,0-.84-5.1A9.26,9.26,0,0,0,479.47,79a11.15,11.15,0,0,0-3.84-3.14,11,11,0,0,0-4.83-1,9.43,9.43,0,0,0-7.27,2.86,16.57,16.57,0,0,0-3.77,6.65,28.35,28.35,0,0,0-1.26,6.71c-1,0-2.31-.07-3.85-.21a10.07,10.07,0,0,1-3.42-.77,70.52,70.52,0,0,0,.13-7.83,40,40,0,0,0-.83-7.41,59.92,59.92,0,0,1,12.09-4.62,46,46,0,0,1,11.68-1.68A24.07,24.07,0,0,1,483.18,70a16.14,16.14,0,0,1,5.94,3.85A16.83,16.83,0,0,1,493.88,83,81.17,81.17,0,0,1,495,98v15.38a24.55,24.55,0,0,0,.63,6.23,5.22,5.22,0,0,0,2.44,3.35,13.51,13.51,0,0,0,5.6,1.33c0,.94-.05,2-.14,3.15a12.84,12.84,0,0,1-.7,3.28,34.78,34.78,0,0,0-7.76,1.33A33.91,33.91,0,0,0,487.58,135.1Zm-19-8a11.84,11.84,0,0,0,6.3-2,15.35,15.35,0,0,0,5.38-6.36q2.17-4.33,2.17-11.33V102.1c-2.33.28-4.8.67-7.41,1.19a32.35,32.35,0,0,0-7.27,2.3,14.26,14.26,0,0,0-5.46,4.27,11.72,11.72,0,0,0-2.1,7.34q0,5.17,2.52,7.55A8.27,8.27,0,0,0,468.56,127.13Z"/><path class="cls-1" d="M558.9,73.43c-.09,2.24-.16,4.61-.21,7.13a43.26,43.26,0,0,0,.49,7.41A11,11,0,0,1,556,89.23a16.85,16.85,0,0,1-3.78.42,17.44,17.44,0,0,0-7.69-13.14,14.07,14.07,0,0,0-8-2.24,10.64,10.64,0,0,0-6.92,2.1A6.81,6.81,0,0,0,527,82a8.2,8.2,0,0,0,1.05,4.19q1,1.83,4.61,3.85a93.06,93.06,0,0,0,11,5,62.55,62.55,0,0,1,11.89,5.6,17.14,17.14,0,0,1,6.15,6.29,18.35,18.35,0,0,1,1.82,8.53,16.76,16.76,0,0,1-3.36,10.35,21.61,21.61,0,0,1-9.16,6.92,33.39,33.39,0,0,1-13.07,2.45,53.42,53.42,0,0,1-13.36-1.33,46.45,46.45,0,0,1-9.72-3.84,54.44,54.44,0,0,0,.35-5.46c0-2.14.07-4.29.07-6.43a44.48,44.48,0,0,0-.28-5.46,7.42,7.42,0,0,1,3.15-1.18,23.54,23.54,0,0,1,4.12-.35q1.13,8.81,5.46,13.14t11.6,4.34q5.74,0,8.88-2.52a7.88,7.88,0,0,0,3.15-6.43,7.77,7.77,0,0,0-1.19-4.34,12.55,12.55,0,0,0-4.4-3.63,85.06,85.06,0,0,0-9.51-4.34,97.36,97.36,0,0,1-12.1-5.73,17.09,17.09,0,0,1-6.57-6.3,18.8,18.8,0,0,1-2-9.23,13.47,13.47,0,0,1,2.24-7.76,18.7,18.7,0,0,1,5.8-5.45,28.13,28.13,0,0,1,7.62-3.22,30.28,30.28,0,0,1,7.56-1,43.32,43.32,0,0,1,11,1.26A40.08,40.08,0,0,1,558.9,73.43Z"/><path class="cls-1" d="M606.31,135.1A32.53,32.53,0,0,1,589.67,131a28.1,28.1,0,0,1-11-11.6,37.36,37.36,0,0,1-3.92-17.55,35.4,35.4,0,0,1,4.06-17.06A30.44,30.44,0,0,1,590,72.87a30.84,30.84,0,0,1,16.36-4.34q9.93,0,17,4.2a27.93,27.93,0,0,1,10.84,11.68,38.22,38.22,0,0,1,3.77,17.41,36.08,36.08,0,0,1-4,17.06,30.14,30.14,0,0,1-11,11.88A31,31,0,0,1,606.31,135.1Zm1.12-6.71q8.39,0,12.44-6.92t4.06-18a39.75,39.75,0,0,0-2.59-15,23.34,23.34,0,0,0-6.92-9.79,15,15,0,0,0-9.51-3.42q-8.11,0-12.1,6.57t-4,17.06a48.92,48.92,0,0,0,2.31,16,21.76,21.76,0,0,0,6.5,10.07A15,15,0,0,0,607.43,128.39Zm-.7-68.81a9.42,9.42,0,0,1-2.59-.07,8.44,8.44,0,0,1-2.45-.76q3.36-7,5.53-12.87c1.44-3.92,2.63-7.64,3.56-11.19a28.32,28.32,0,0,1,5.67-1.47,24,24,0,0,1,4.68-.21,17.7,17.7,0,0,1,2.31.42c.7.19,1.28.38,1.75.56q-4.62,5.32-9.51,12.24T606.73,59.58Z"/></g></g></svg>