<svg xmlns="http://www.w3.org/2000/svg" viewBox="0 0 282.74 282.82"><defs><style>.cls-1,.cls-2{fill:#81a78c;}.cls-2{fill-rule:evenodd;}</style></defs><g id="Capa_2" data-name="Capa 2"><g id="Capa_1-2" data-name="Capa 1"><path class="cls-1" d="M252.61,54.14c49.22,73.23,15.06,175-70.4,202.24-10.59-5.22-20.73-6.71-24.46-7.75,0,0-2.39-26.85,0-38.48,1-5.07,2.39-13.87,11-17.6,6-2.69,26.1-14,20.28-46.24,0,0-6.86,26.4-20.43,30-2.09.6-1.2-7,4.47-13.12,0,0-21.47-3.14-31.17,43-9.69-46.09-31.17-43-31.17-43,5.67,6,6.56,13.57,4.47,13.12-13.57-3.58-20.43-30-20.43-30C89,178.53,109,189.86,115.09,192.55c8.65,3.73,10,12.53,11,17.6,2.39,11.78,0,38.48,0,38.48-3.73,1-14.17,2.53-24.91,7.9C15.46,229.69-19.44,127.82,30.08,54.14-26.3,126-.64,232.67,83.77,270.4c93.07,41.61,199-26.4,199-129.16a141,141,0,0,0-30.13-87.1Z"/><path class="cls-1" d="M141.34,10.29A128.84,128.84,0,0,1,270.06,133.93a128.82,128.82,0,1,0-257.43,0A128.73,128.73,0,0,1,141.34,10.29Z"/><path class="cls-2" d="M78,98.14c7.31-12.68-7.31-13.87-16.56-24.46-5.52,11,1.49,27.29,13.13,25.95,0-3.88-1.79-8.5-6.42-12.83C74.38,89.94,78,94.11,78,98.14Z"/><path class="cls-2" d="M83.92,69.8c8.21-6.26-3.73-12.53-3.43-20.88-8.2,6.86-7.75,19.09-.3,21,1.2-1.94,1.5-6.86-.15-10,2.39,2.23,4,7.16,3.88,9.84Z"/><path class="cls-2" d="M98.39,50.41c7-1.94,1-11.18,3.73-16.4-7.31,3.28-10.74,12.08-5.22,16,1.49-1.34,2.09-4.32,1.79-8.5a12.29,12.29,0,0,1-.3,8.95Z"/><path class="cls-2" d="M134.19,55.33c-11.79-2.68.89-18.19-.45-26.4,11.33,8.8,11.78,21.63,4.47,25.81-1.94-2.09-3.13-8.36-2.09-12.68-2.23,3.58-2.83,10-1.93,13.27Z"/><path class="cls-2" d="M86.46,154.22c-6.71,10.14-16.71-7.31-24.91-8.8,12.23-7.61,24.31-3.43,25.8,4.92-2.68,1.19-8.95,0-12.53-2.54,2.39,3.29,8.21,6.12,11.64,6.42Z"/><path class="cls-2" d="M157.6,56.82c-7.16-2.08-1.19-11-3.28-16.1,7.46,3.28,10.29,12.67,4.77,15.66-1.19-1.79-1-4.48-1-8.35a16.14,16.14,0,0,0-.45,8.79Z"/><path class="cls-2" d="M225.76,172.12c3.13-6.72,11,.44,16.41-.75-4.48,6.86-14.17,8.35-16.11,2.24,1.94-.9,4.62-.3,8.35.15-3.13-1.2-5.67-1.94-8.65-1.64Z"/><path class="cls-2" d="M235.46,125c-3.14-6.71,7.6-8,10.14-12.82,2.24,7.9-3,16.11-8.8,13.72.59-2.09,2.68-3.73,5.67-6.26a15,15,0,0,0-7,5.36Z"/><path class="cls-2" d="M214.58,79.5c-3.29-6.72,7.45-8.21,9.84-13.13,2.53,7.76-2.54,16.11-8.5,13.87.45-2.09,2.68-3.73,5.52-6.26a16.74,16.74,0,0,0-6.86,5.52Z"/><path class="cls-2" d="M141.49,119.91c-5.52-4.92,3.88-10.44,4.18-15.81,5.22,6.27,3.58,16-2.69,16.11-.29-2.09,1.05-4.47,2.69-7.9a16.62,16.62,0,0,0-4.18,7.6Z"/><path class="cls-2" d="M180.12,46.38c-7.16-3.43.9-11.78-.3-17.45,7.16,4.93,8.51,15.37,2.09,17.31a12.56,12.56,0,0,0,.45-9c-.3,3.43-.45,6.26-2.24,9.09Z"/><path class="cls-2" d="M200,136.92c-3.43-12.38,14.32-8.21,21-15.81.89,14.76-10.59,21.47-18.5,17.45.6-2.84,3.88-5.67,9.1-7.61a19.84,19.84,0,0,0-11.63,6Z"/><path class="cls-2" d="M218.3,113.2c-8.05-10.14,10-13.12,13.28-22.67,6.56,13.28-1.49,23.87-10.29,23.27-.6-2.83,1.34-6.71,5.37-10.59a20.55,20.55,0,0,0-8.36,10Z"/><path class="cls-2" d="M197.57,176.74c7.76-10.29,15.22,6.41,25.36,7-11.19,9.69-23.42,4.62-25.06-4,2.54-1.19,6.86-.45,11.63,2.54a20.41,20.41,0,0,0-11.93-5.52Z"/><path class="cls-2" d="M46.19,137.51c-6.71,11-15.81-4.92-25.8-4.47,10.14-10.74,22.82-6.86,25.35,1.49-2.39,1.49-6.86,1-11.78-1.49a18.31,18.31,0,0,0,12.23,4.47Z"/><path class="cls-2" d="M87.05,178.53C94.66,189,76.47,191.21,72.89,200.6c-6-13.57,2.53-23.71,11.33-22.82.45,2.84-1.64,6.71-6,10.29a18.65,18.65,0,0,0,8.79-9.54Z"/><path class="cls-2" d="M94.06,121.41c4.63,5.22,2.84,22.37,13,16.85a17.6,17.6,0,0,1-5.67-10.44c1.35,3.28,3.73,7.75,7.16,9,4.48-9.4-6-16.11-14.47-15.36Z"/><path class="cls-2" d="M221.29,163.32c-8.65-4.48-21.78,5.22-22.08-7.31,3.43,1.94,7.31,3.13,11.93,1.94-4-.15-8-.9-10.88-4,7.75-6.56,19.09.3,21,9.4Z"/><path class="cls-2" d="M177,60.7c-8.35,14.62,6.12,37.29-12.53,37.89,3.73-5.82,4.77-12.53,2.54-21-.6,7-2.24,13.72-7.76,18.49C148.35,82,161.18,63.39,177,60.7Z"/><path class="cls-2" d="M261.71,151.68c-16-5.07-35.2,13.72-39.53-4.32,6.42,2.38,13.28,2.09,21.18-1.94-7,.89-13.87.74-19.69-3.73,11.19-13.42,32.22-4.92,38,10Z"/><path class="cls-2" d="M204.58,79.64c-7.6,19.69-41.31,23.42-27.14,42.06,2.68-8.2,8.5-14.61,18.64-19.09-7.16,6.12-13.57,12.83-12.68,22.08,22.23-.3,31.32-27.45,21.18-45Z"/><path class="cls-2" d="M41.12,95.16c14.76,15.06,46.68,5.66,41,28.33-5.66-6.56-13.57-10.14-24-10.44,8.35,3.14,15.66,7.46,19.39,15.81-20.43,8.5-38.33-13.12-36.39-33.7Z"/><path class="cls-2" d="M97.35,111.56c3.43-8.35-6.86-7.31-9.85-13.27-3,11.48,2.39,13.42,8.35,14.76-.29-2.38-1-4.47-4-6.86,3.43,1.34,4.32,2.69,5.52,5.37Z"/><path class="cls-2" d="M139.85,90.68c-9.39-4.32,1.64-13.72.45-22.07,10.44,13.12,5.37,14.61,1.94,22.37-1.34-2.54-1.64-6.12-.6-10.74-2.09,3.43-2.83,6.56-1.79,10.44Z"/><path class="cls-2" d="M156.11,131c-7-7.46,6.56-12.23,8.65-20.43,4.77,16.11-.45,15.66-6.41,21.47-.3-2.83.74-6.26,3.28-10.14-3.43,2.54-5.07,5.07-5.52,9.1Z"/><path class="cls-2" d="M130,154.52c-10.14,1.64-6.41-12.38-11.93-18.65,16,5.07,12.67,9.25,14.17,17.45-2.54-1.34-4.78-4.17-6.57-8.5.15,4,1.2,7,4.33,9.7Z"/><path class="cls-2" d="M144.48,153.62c-8.06-6.56,4.92-13,5.81-21.33,6.86,15.22,1.64,15.51-3.43,22.23-.74-2.69-.15-6.27,1.94-10.59a12.29,12.29,0,0,0-4.32,9.69Z"/><path class="cls-2" d="M121.66,124.84C110.32,118,126.13,109.47,126,99c9.7,7.91,8.5,22.82-1.34,26-1.34-3.13-.45-7.3,1.64-12.52-3.43,3.73-5.37,7.75-4.62,12.38Z"/><path class="cls-2" d="M167.44,146.16c-4.32-8.65,9.85-7.9,13.28-15.66,3.28,9.4-3.73,20.44-11.34,17.3-.15-2.83,1.94-4.92,6.12-7.45-4.18,1.19-6.56,2.68-8.06,5.81Z"/><path class="cls-2" d="M105.4,98.29c-22.52-11.19,8-29.53,7.31-49.52,16.4,12.38,17,43-1.49,49.67-2.84-5.82-1.35-14,2.38-23.87-6.41,7.16-9.84,14.92-8.2,23.72Z"/><path class="cls-2" d="M69.31,164.66c-3.73,4.47-13,3-25.51-1.49,8.06,6.56,16.26,9.39,24.46,7.75-7,23.42-34-9.1-49.07-5.52,12.08-17,39.38-20.58,50.12-.74Z"/><path class="cls-2" d="M187.43,69.35c-5.67-7.75,8-10.44,11-18.79,4.92,9.4.59,22.22-8.35,20.14-.3-3,1.49-5.82,5.07-9.55-4.33,2.24-6.72,4.33-7.76,8.2Z"/></g></g></svg>